<svg width="384" height="74" xmlns="http://www.w3.org/2000/svg">
    <style type="text/css">.st0{fill:#CFA76D;}
        .st1{fill:#C3DC88;}
        .st2{fill:#D6A3C9;}
        .st3{fill:#B1B8D4;}
        .st4{fill:#FFFFFF;}
    </style>

    <g>
        <title>background</title>
        <rect fill="none" id="canvas_background" height="76" width="386" y="-1" x="-1"/>
    </g>
    <g>
        <title>Layer 1</title>
        <g id="svg_1">
            <path id="svg_2"
                  d="m87.15,250.97c0,0.68 -0.25,1.27 -0.74,1.76c-0.5,0.5 -1.08,0.74 -1.76,0.74l-39.24,0c-0.37,0 -0.57,0.18 -0.63,0.55c-0.26,2.61 -0.65,5.43 -1.17,8.46l0,0.16c0,0.31 0.16,0.47 0.47,0.47l28.9,0c1.25,0 2.27,0.45 3.05,1.33c0.73,0.78 1.1,1.7 1.1,2.74l0,0.47c-0.73,7.57 -1.53,13.17 -2.39,16.8c-0.86,3.63 -1.95,6.07 -3.25,7.32c-1.41,1.25 -3.45,2.01 -6.11,2.27l-2.35,0c-2.19,0 -4.73,-0.08 -7.6,-0.23c-1.51,-0.1 -2.58,-1.02 -3.21,-2.74c-0.05,-0.16 -0.08,-0.34 -0.08,-0.55c0,-0.31 0.1,-0.63 0.31,-0.94c0.26,-0.42 0.6,-0.63 1.02,-0.63l0.16,0c2.92,0.16 6.24,0.23 9.95,0.23c1.77,0 2.95,-0.23 3.52,-0.7c1.93,-1.83 3.47,-8.46 4.62,-19.89l0,-0.16c0,-0.31 -0.16,-0.47 -0.47,-0.47l-28.35,0c-0.42,0 -0.68,0.18 -0.78,0.55c-1.62,5.59 -4.11,10.44 -7.48,14.57c-3.37,4.13 -8,7.52 -13.9,10.18c-0.37,0.1 -0.76,0.16 -1.17,0.16c-0.37,0 -0.82,-0.08 -1.37,-0.23s-1.06,-0.55 -1.53,-1.17c-0.31,-0.42 -0.47,-0.84 -0.47,-1.25c0,-0.16 0.03,-0.31 0.08,-0.47c0.1,-0.63 0.47,-1.07 1.1,-1.33c3.24,-1.41 6.08,-3.11 8.54,-5.09c2.45,-1.98 4.44,-4.03 5.95,-6.15c1.51,-2.11 2.79,-4.55 3.84,-7.32c1.04,-2.77 1.8,-5.39 2.27,-7.87c0.47,-2.48 0.89,-5.31 1.25,-8.5c0,-0.36 -0.18,-0.55 -0.55,-0.55l-19.98,0c-0.68,0 -1.27,-0.25 -1.76,-0.74c-0.5,-0.49 -0.74,-1.08 -0.74,-1.76c0,-0.68 0.25,-1.26 0.74,-1.76c0.5,-0.49 1.08,-0.74 1.76,-0.74l29.6,0c0.36,0 0.55,-0.18 0.55,-0.55l0,-7.44c0,-0.68 0.26,-1.28 0.78,-1.8c0.52,-0.52 1.15,-0.78 1.88,-0.78c0.68,0 1.28,0.26 1.8,0.78c0.52,0.52 0.78,1.12 0.78,1.8l0,7.44c0,0.37 0.18,0.55 0.55,0.55l30,0c0.68,0 1.27,0.25 1.76,0.74c0.51,0.48 0.75,1.06 0.75,1.74zm-49.49,-9.95c-0.73,0 -1.36,-0.26 -1.88,-0.78c-0.52,-0.52 -0.78,-1.12 -0.78,-1.8l0,-5.01c0,-0.36 -0.18,-0.55 -0.55,-0.55l-15.28,0c-0.68,0 -1.25,-0.25 -1.72,-0.74c-0.47,-0.49 -0.7,-1.08 -0.7,-1.76c0,-0.68 0.23,-1.25 0.7,-1.72c0.47,-0.47 1.04,-0.7 1.72,-0.7l15.27,0c0.36,0 0.55,-0.18 0.55,-0.55l0,-3.84c0,-0.73 0.26,-1.34 0.78,-1.84c0.52,-0.49 1.15,-0.74 1.88,-0.74c0.68,0 1.28,0.25 1.8,0.74c0.52,0.5 0.78,1.11 0.78,1.84l0,3.84c0,0.37 0.18,0.55 0.55,0.55l21.22,0c0.36,0 0.55,-0.18 0.55,-0.55l0,-3.76c0,-0.73 0.26,-1.36 0.78,-1.88c0.52,-0.52 1.15,-0.78 1.88,-0.78c0.73,0 1.36,0.26 1.88,0.78c0.52,0.52 0.78,1.15 0.78,1.88l0,3.76c0,0.37 0.18,0.55 0.55,0.55l15.74,0c0.68,0 1.25,0.23 1.72,0.7c0.47,0.47 0.7,1.05 0.7,1.72c0,0.68 -0.23,1.27 -0.7,1.76c-0.47,0.5 -1.04,0.74 -1.72,0.74l-15.72,0c-0.37,0 -0.55,0.18 -0.55,0.55l0,4.93c0,0.73 -0.26,1.36 -0.78,1.88c-0.52,0.52 -1.15,0.78 -1.88,0.78c-0.73,0 -1.36,-0.26 -1.88,-0.78c-0.52,-0.52 -0.78,-1.15 -0.78,-1.88l0,-4.93c0,-0.36 -0.18,-0.55 -0.55,-0.55l-21.23,0c-0.37,0 -0.55,0.18 -0.55,0.55l0,5.01c0,0.68 -0.26,1.28 -0.78,1.8c-0.53,0.52 -1.13,0.78 -1.8,0.78z"/>
            <path id="svg_3"
                  d="m165.16,234.76l-67.75,0c-0.68,-0.05 -1.24,-0.33 -1.68,-0.82c-0.44,-0.49 -0.67,-1.06 -0.67,-1.68c0,-0.68 0.22,-1.26 0.67,-1.76c0.44,-0.49 1,-0.77 1.68,-0.82l67.75,0c0.68,0 1.27,0.25 1.76,0.74c0.5,0.5 0.74,1.11 0.74,1.84c0,0.68 -0.25,1.27 -0.74,1.76c-0.49,0.49 -1.08,0.74 -1.76,0.74zm-4.39,59.05c-0.68,0 -1.25,-0.21 -1.72,-0.63l-27.73,-25.85l-27.96,25.85c-0.47,0.42 -1.04,0.63 -1.72,0.63c-0.68,0 -1.27,-0.23 -1.76,-0.7c-0.5,-0.47 -0.74,-1.07 -0.74,-1.8s0.26,-1.36 0.78,-1.88l27.65,-25.53l-23.42,-21.38c-0.52,-0.47 -0.78,-1.1 -0.78,-1.88c0,-0.68 0.25,-1.26 0.74,-1.76c0.5,-0.49 1.08,-0.74 1.76,-0.74c0.68,0 1.25,0.23 1.72,0.7l23.73,21.62l23.5,-21.62c0.47,-0.47 1.04,-0.7 1.72,-0.7c0.68,0 1.27,0.25 1.76,0.74c0.5,0.5 0.74,1.08 0.74,1.76c0,0.73 -0.26,1.36 -0.78,1.88l-23.18,21.38l27.41,25.53c0.52,0.52 0.78,1.15 0.78,1.88s-0.25,1.33 -0.74,1.8c-0.49,0.47 -1.08,0.7 -1.76,0.7zm-29.6,-67.51c-0.68,0 -1.27,-0.25 -1.76,-0.74c-0.5,-0.49 -0.74,-1.08 -0.74,-1.76c0,-0.73 0.25,-1.34 0.74,-1.84c0.5,-0.49 1.08,-0.74 1.76,-0.74c0.73,0 1.34,0.25 1.84,0.74c0.5,0.5 0.74,1.11 0.74,1.84c0,0.68 -0.25,1.27 -0.74,1.76c-0.5,0.49 -1.11,0.74 -1.84,0.74z"/>
            <path id="svg_4"
                  d="m319.9,293.81l-59.13,0c-0.68,0 -1.27,-0.23 -1.76,-0.7c-0.5,-0.47 -0.74,-1.07 -0.74,-1.8c0,-0.68 0.25,-1.27 0.74,-1.76c0.5,-0.5 1.08,-0.74 1.76,-0.74l31.25,0l0,-7.6l-22.79,0c-0.68,0 -1.27,-0.25 -1.76,-0.74c-0.5,-0.49 -0.74,-1.11 -0.74,-1.84c0,-0.68 0.25,-1.26 0.74,-1.76c0.5,-0.49 1.08,-0.74 1.76,-0.74l22.79,0l0,-7.6l-23.34,0c-0.47,0.94 -0.94,1.88 -1.41,2.82c-0.47,0.94 -1.23,1.41 -2.27,1.41c-0.68,0 -1.27,-0.25 -1.76,-0.74c-0.5,-0.49 -0.74,-1.08 -0.74,-1.76c0,-0.42 0.1,-0.81 0.31,-1.17l4.15,-8.38c0.52,-0.94 1.28,-1.41 2.27,-1.41c0.73,0 1.34,0.23 1.84,0.7c0.5,0.47 0.74,1.07 0.74,1.8c0,0.42 -0.18,0.97 -0.55,1.64l20.75,0l0,-2.51c0,-0.68 0.25,-1.26 0.74,-1.76c0.5,-0.49 1.11,-0.74 1.84,-0.74c0.68,0 1.27,0.25 1.76,0.74c0.5,0.5 0.74,1.08 0.74,1.76l0,2.51l27.02,0c0.68,0 1.27,0.25 1.76,0.74c0.5,0.5 0.74,1.11 0.74,1.84c0,0.68 -0.23,1.27 -0.7,1.76c-0.47,0.5 -1.07,0.74 -1.8,0.74l-27.02,0l0,20.28l22.79,0c0.68,0 1.27,0.25 1.76,0.74c0.5,0.5 0.74,1.08 0.74,1.76c0,0.73 -0.25,1.33 -0.74,1.8c-0.47,0.48 -1.06,0.71 -1.74,0.71zm0,-37.98l-50.99,0c-2.45,0 -4.14,-0.49 -5.05,-1.49c-0.91,-0.99 -1.37,-2.74 -1.37,-5.25l0,-18.56c0.05,-2.19 0.59,-3.72 1.61,-4.58c1.02,-0.86 2.73,-1.29 5.13,-1.29l51.06,0c2.24,0 3.85,0.45 4.82,1.33c0.97,0.89 1.47,2.4 1.53,4.54l0,18.56c0,2.56 -0.47,4.32 -1.41,5.29c-0.94,0.96 -2.72,1.45 -5.33,1.45zm1.64,-5.02l0,-4.23l0.08,0l0,-16.92l-54.04,0l0,21.15l53.96,0zm-5.87,-8.06l-42.21,0c-0.68,0 -1.27,-0.25 -1.76,-0.74c-0.5,-0.49 -0.74,-1.08 -0.74,-1.76c0,-0.68 0.25,-1.26 0.74,-1.76c0.5,-0.49 1.08,-0.74 1.76,-0.74l42.21,0c0.68,0 1.27,0.25 1.76,0.74c0.5,0.5 0.74,1.08 0.74,1.76c0,0.68 -0.25,1.27 -0.74,1.76c-0.49,0.49 -1.08,0.74 -1.76,0.74zm4.23,38.45l-16.92,0c-0.68,0 -1.27,-0.25 -1.76,-0.74c-0.5,-0.49 -0.74,-1.11 -0.74,-1.84c0,-0.68 0.25,-1.26 0.74,-1.76c0.5,-0.49 1.08,-0.74 1.76,-0.74l16.92,0c0.68,0 1.27,0.25 1.76,0.74c0.5,0.5 0.74,1.08 0.74,1.76c0,0.73 -0.25,1.35 -0.74,1.84c-0.49,0.5 -1.08,0.74 -1.76,0.74zm8.46,12.61c-0.73,0 -1.35,-0.23 -1.84,-0.7c-0.5,-0.47 -0.74,-1.07 -0.74,-1.8c0,-0.68 0.25,-1.27 0.74,-1.76c0.5,-0.5 1.11,-0.74 1.84,-0.74c0.68,0 1.27,0.25 1.76,0.74c0.5,0.5 0.74,1.08 0.74,1.76c0,0.73 -0.25,1.33 -0.74,1.8c-0.5,0.47 -1.08,0.7 -1.76,0.7z"/>
        </g>
        <path id="svg_5"
              d="m201.07,241.36l-24.02,0c-1.04,0 -1.89,-0.85 -1.89,-1.89l0,-1.71c0,-1.04 0.85,-1.89 1.89,-1.89l24.02,0c1.04,0 1.89,0.85 1.89,1.89l0,1.71c0,1.04 -0.85,1.89 -1.89,1.89z"/>
        <path id="svg_6"
              d="m178.84,284.18c-1.99,-1.31 -1.36,-2.44 -0.67,-3.94l19.17,-41.4c0.78,-1.69 1.78,-3.01 3.94,-1.9c2.19,1.12 1.89,2.52 1.11,4.2l-19.17,41.4c-0.78,1.69 -2.2,2.69 -3.94,1.9c-0.16,-0.07 -0.31,-0.16 -0.44,-0.26z"/>
        <path id="svg_7"
              d="m185.83,259.74c-0.98,0.3 -2.1,-0.26 -2.69,-1.43l-5.27,-10.42c-0.7,-1.39 -0.4,-3.13 0.68,-3.87c1.08,-0.75 2.52,-0.22 3.22,1.17l5.27,10.43c0.7,1.39 0.4,3.13 -0.68,3.87c-0.17,0.11 -0.35,0.19 -0.53,0.25z"/>
        <path id="svg_8"
              d="m207.52,258.85l0,-28.6c0,-0.34 0.11,-0.67 0.31,-0.96c0.83,-1.78 3.4,-4.21 9.05,-4.21l21.21,0c3.01,0 7.49,1.66 7.49,6.22l0,27.54c0,1.23 0,1.78 -3.12,1.78c-3.12,0 -3.12,-0.55 -3.12,-1.78l0,-27.54c0,-1.69 -1.04,-1.78 -1.25,-1.78l-21.21,0c-2.43,0 -3,0.83 -3.12,1.11l0,28.21c0,1.23 -0.62,1.78 -3.12,1.78c-3.12,0 -3.12,-0.55 -3.12,-1.77z"/>
        <path id="svg_9"
              d="m196.06,281.04c-0.97,0.29 -2.07,-0.25 -2.66,-1.41l-5.2,-10.29c-0.69,-1.38 -0.4,-3.09 0.67,-3.83c1.06,-0.74 2.49,-0.22 3.18,1.15l5.2,10.29c0.69,1.38 0.4,3.09 -0.67,3.83c-0.16,0.12 -0.34,0.21 -0.52,0.26z"/>
        <path id="svg_10"
              d="m223.84,259.37l0,-19.97c0,-1.04 0.85,-1.89 1.89,-1.89l1.36,0c1.04,0 1.89,0.85 1.89,1.89l0,19.97c0,1.04 -0.85,1.89 -1.89,1.89l-1.36,0c-1.05,0 -1.89,-0.84 -1.89,-1.89z"/>
        <path id="svg_11"
              d="m223.98,262.06l0,-20.62c0,-1.04 0.85,-1.89 1.89,-1.89l1.36,0c1.04,0 1.89,0.85 1.89,1.89l0,20.62c0,1.04 -0.85,1.89 -1.89,1.89l-1.36,0c-1.04,0 -1.89,-0.85 -1.89,-1.89z"/>
        <path id="svg_12"
              d="m230.5,265.17l0,0c-1.53,0 -2.78,1.05 -2.78,2.33l0,20.77c0,3.19 3.08,5.77 6.88,5.77l13.11,0c1.53,0 2.78,-1.05 2.78,-2.33l0,-0.47c0,-1.28 -1.25,-2.33 -2.78,-2.33l-12.77,0c-0.92,0 -1.67,-0.63 -1.67,-1.4l0,-20.01c0,-1.28 -1.25,-2.33 -2.77,-2.33z"/>
        <path id="svg_13"
              d="m250.49,283.87c0,1.66 -1.26,3 -2.81,3c-1.55,0 -2.81,-1.34 -2.81,-3c0,-1.66 1.26,-3 2.81,-3c1.55,0 2.81,1.35 2.81,3z"/>
        <path id="svg_14"
              d="m219.31,279.66c-1.62,-0.93 -1.81,-1.79 -1.3,-3.07l5.98,-15.14c0.62,-2.31 1.63,-2.2 3.41,-1.4c1.63,0.73 2.12,1.79 1.41,3.67l-5.98,15.14c-0.55,1.4 -0.77,1.64 -3.18,0.99c-0.12,-0.04 -0.23,-0.12 -0.34,-0.19z"/>
        <path id="svg_15"
              d="m212.94,293.23c-1.6,-0.99 -1.74,-1.88 -1.15,-3.18l7.04,-15.44c0.77,-2.36 1.8,-2.23 3.59,-1.37c1.63,0.78 2.06,1.89 1.23,3.8l-7.04,15.44c-0.65,1.43 -0.89,1.67 -3.32,0.95c-0.14,-0.03 -0.24,-0.12 -0.35,-0.2z"/>
        <path id="svg_16"
              d="m196.19,291.01c0.24,-1.75 0.94,-2.21 2.28,-2.2l15.88,0.14c2.31,-0.24 2.59,0.69 2.53,2.54c-0.05,1.69 -0.83,2.48 -2.78,2.5l-15.88,-0.14c-1.47,-0.01 -1.77,-0.13 -2.08,-2.48c-0.01,-0.12 0.02,-0.24 0.05,-0.36z"/>
        <path id="svg_17"
              d="m393.6,250.53c0,2.17 -1.41,3.12 -10.79,3.12l-35.64,0c-9.38,0 -10.79,-0.95 -10.79,-3.12c0,-2.17 1.41,-3.12 10.79,-3.12l35.64,0c9.38,0 10.79,0.95 10.79,3.12z"/>
        <path id="svg_18"
              d="m356.48,226.12c1.78,1.24 2.1,2.45 -0.98,6.85l-11.68,16.72c-3.07,4.4 -4.31,4.52 -6.09,3.28c-1.78,-1.24 -2.1,-2.45 0.98,-6.85l11.68,-16.72c3.07,-4.4 4.31,-4.52 6.09,-3.28z"/>
        <path id="svg_19"
              d="m339.47,265.35c2.17,-0.01 3.12,0.68 3.15,5.34l0.11,17.7c0.03,4.66 -0.92,5.36 -3.09,5.37c-2.17,0.01 -3.12,-0.68 -3.15,-5.34l-0.11,-17.7c-0.03,-4.65 0.92,-5.36 3.09,-5.37z"/>
        <path id="svg_20"
              d="m397.2,267.65c0,2.17 -1.49,3.12 -11.42,3.12l-37.75,0c-9.93,0 -11.42,-0.95 -11.42,-3.12c0,-2.17 1.49,-3.12 11.42,-3.12l37.75,0c9.93,0 11.42,0.95 11.42,3.12z"/>
        <path id="svg_21"
              d="m394.29,265.35c2.17,-0.01 3.12,0.68 3.15,5.33l0.11,17.69c0.03,4.66 -0.92,5.36 -3.09,5.37c-2.17,0.01 -3.12,-0.68 -3.15,-5.33l-0.11,-17.69c-0.02,-4.65 0.92,-5.36 3.09,-5.37z"/>
        <path id="svg_22"
              d="m397.2,290.9c0,2.17 -1.49,3.12 -11.42,3.12l-37.75,0c-9.93,0 -11.42,-0.95 -11.42,-3.12s1.49,-3.12 11.42,-3.12l37.75,0c9.93,0 11.42,0.95 11.42,3.12z"/>
        <path id="svg_23"
              d="m386.9,241.21c1.84,-1.15 2.91,-1.23 4.69,1.61l6.76,10.8c1.78,2.84 1.24,3.77 -0.6,4.92c-1.84,1.15 -2.91,1.23 -4.69,-1.61l-6.76,-10.8c-1.77,-2.84 -1.24,-3.77 0.6,-4.92z"/>
        <path id="svg_24"
              d="m387.13,237.73c0,1.66 -1.26,3 -2.81,3c-1.55,0 -2.81,-1.34 -2.81,-3c0,-1.66 1.26,-3 2.81,-3c1.55,0 2.81,1.35 2.81,3z"/>
        <circle id="svg_25" r="2.71" cy="223.75" cx="131.21" class="st0"/>
        <circle id="svg_26" r="3" cy="283.87" cx="247.68" class="st1"/>
        <circle id="svg_27" r="3" cy="291.4" cx="328.32" class="st1"/>
        <circle id="svg_28" r="3" cy="291.4" cx="328.32" class="st2"/>
        <circle id="svg_29" r="2.87" cy="237.73" cx="384.32" class="st3"/>
        <g id="svg_30">
            <path id="svg_31"
                  d="m491.9,252.57c0,0.68 -0.25,1.27 -0.74,1.76c-0.5,0.5 -1.08,0.74 -1.76,0.74l-39.24,0c-0.37,0 -0.58,0.18 -0.63,0.55c-0.26,2.61 -0.65,5.43 -1.17,8.46l0,0.16c0,0.31 0.16,0.47 0.47,0.47l28.9,0c1.25,0 2.27,0.45 3.05,1.33c0.73,0.78 1.1,1.7 1.1,2.74l0,0.47c-0.73,7.57 -1.53,13.17 -2.39,16.8c-0.86,3.63 -1.95,6.07 -3.25,7.32c-1.41,1.25 -3.45,2.01 -6.11,2.27l-2.35,0c-2.19,0 -4.73,-0.08 -7.6,-0.23c-1.51,-0.1 -2.58,-1.02 -3.21,-2.74c-0.05,-0.16 -0.08,-0.34 -0.08,-0.55c0,-0.31 0.1,-0.63 0.31,-0.94c0.26,-0.42 0.6,-0.63 1.02,-0.63l0.16,0c2.92,0.16 6.24,0.23 9.95,0.23c1.77,0 2.95,-0.23 3.52,-0.7c1.93,-1.83 3.47,-8.46 4.62,-19.89l0,-0.16c0,-0.31 -0.16,-0.47 -0.47,-0.47l-28.35,0c-0.42,0 -0.68,0.18 -0.78,0.55c-1.62,5.59 -4.11,10.44 -7.48,14.57c-3.37,4.13 -8,7.52 -13.9,10.18c-0.37,0.1 -0.76,0.16 -1.17,0.16c-0.37,0 -0.82,-0.08 -1.37,-0.23c-0.55,-0.16 -1.06,-0.55 -1.53,-1.17c-0.31,-0.42 -0.47,-0.84 -0.47,-1.25c0,-0.16 0.03,-0.31 0.08,-0.47c0.1,-0.63 0.47,-1.07 1.1,-1.33c3.24,-1.41 6.08,-3.11 8.54,-5.09c2.45,-1.98 4.44,-4.03 5.95,-6.15c1.51,-2.11 2.79,-4.55 3.84,-7.32c1.04,-2.77 1.8,-5.39 2.27,-7.87c0.47,-2.48 0.89,-5.31 1.25,-8.5c0,-0.36 -0.18,-0.55 -0.55,-0.55l-19.97,0c-0.68,0 -1.27,-0.25 -1.76,-0.74c-0.5,-0.49 -0.74,-1.08 -0.74,-1.76c0,-0.68 0.25,-1.26 0.74,-1.76c0.5,-0.49 1.08,-0.74 1.76,-0.74l29.6,0c0.36,0 0.55,-0.18 0.55,-0.55l0,-7.44c0,-0.68 0.26,-1.28 0.78,-1.8c0.52,-0.52 1.15,-0.78 1.88,-0.78c0.68,0 1.28,0.26 1.8,0.78c0.52,0.52 0.78,1.12 0.78,1.8l0,7.44c0,0.37 0.18,0.55 0.55,0.55l30,0c0.68,0 1.27,0.25 1.76,0.74c0.49,0.47 0.74,1.06 0.74,1.74zm-49.5,-9.95c-0.73,0 -1.36,-0.26 -1.88,-0.78c-0.52,-0.52 -0.78,-1.12 -0.78,-1.8l0,-5.01c0,-0.36 -0.18,-0.55 -0.55,-0.55l-15.27,0c-0.68,0 -1.25,-0.25 -1.72,-0.74c-0.47,-0.49 -0.7,-1.08 -0.7,-1.76c0,-0.68 0.23,-1.25 0.7,-1.72c0.47,-0.47 1.04,-0.7 1.72,-0.7l15.27,0c0.36,0 0.55,-0.18 0.55,-0.55l0,-3.84c0,-0.73 0.26,-1.34 0.78,-1.84c0.52,-0.49 1.15,-0.74 1.88,-0.74c0.68,0 1.28,0.25 1.8,0.74c0.52,0.5 0.78,1.11 0.78,1.84l0,3.83c0,0.37 0.18,0.55 0.55,0.55l21.22,0c0.36,0 0.55,-0.18 0.55,-0.55l0,-3.76c0,-0.73 0.26,-1.36 0.78,-1.88c0.52,-0.52 1.15,-0.78 1.88,-0.78c0.73,0 1.36,0.26 1.88,0.78c0.52,0.52 0.78,1.15 0.78,1.88l0,3.76c0,0.37 0.18,0.55 0.55,0.55l15.74,0c0.68,0 1.25,0.23 1.72,0.7c0.47,0.47 0.7,1.05 0.7,1.72c0,0.68 -0.23,1.27 -0.7,1.76c-0.47,0.5 -1.04,0.74 -1.72,0.74l-15.74,0c-0.37,0 -0.55,0.18 -0.55,0.55l0,4.93c0,0.73 -0.26,1.36 -0.78,1.88c-0.52,0.52 -1.15,0.78 -1.88,0.78c-0.73,0 -1.36,-0.26 -1.88,-0.78c-0.52,-0.52 -0.78,-1.15 -0.78,-1.88l0,-4.93c0,-0.36 -0.18,-0.55 -0.55,-0.55l-21.22,0c-0.37,0 -0.55,0.18 -0.55,0.55l0,5.01c0,0.68 -0.26,1.28 -0.78,1.8c-0.52,0.53 -1.12,0.79 -1.8,0.79z"/>
            <path id="svg_32"
                  d="m569.91,236.36l-67.75,0c-0.68,-0.05 -1.24,-0.33 -1.68,-0.82c-0.44,-0.49 -0.67,-1.06 -0.67,-1.68c0,-0.68 0.22,-1.26 0.67,-1.76c0.44,-0.49 1,-0.77 1.68,-0.82l67.75,0c0.68,0 1.27,0.25 1.76,0.74c0.5,0.5 0.74,1.11 0.74,1.84c0,0.68 -0.25,1.27 -0.74,1.76c-0.5,0.49 -1.08,0.74 -1.76,0.74zm-4.39,59.05c-0.68,0 -1.25,-0.21 -1.72,-0.63l-27.73,-25.85l-27.96,25.85c-0.47,0.42 -1.04,0.63 -1.72,0.63c-0.68,0 -1.27,-0.23 -1.76,-0.7c-0.5,-0.47 -0.74,-1.07 -0.74,-1.8s0.26,-1.36 0.78,-1.88l27.65,-25.53l-23.42,-21.38c-0.52,-0.47 -0.78,-1.1 -0.78,-1.88c0,-0.68 0.25,-1.26 0.74,-1.76c0.5,-0.49 1.08,-0.74 1.76,-0.74c0.68,0 1.25,0.23 1.72,0.7l23.73,21.62l23.5,-21.62c0.47,-0.47 1.04,-0.7 1.72,-0.7c0.68,0 1.27,0.25 1.76,0.74c0.5,0.5 0.74,1.08 0.74,1.76c0,0.73 -0.26,1.36 -0.78,1.88l-23.18,21.38l27.41,25.53c0.52,0.52 0.78,1.15 0.78,1.88s-0.25,1.33 -0.74,1.8c-0.49,0.47 -1.08,0.7 -1.76,0.7zm-29.6,-67.51c-0.68,0 -1.27,-0.25 -1.76,-0.74c-0.5,-0.49 -0.74,-1.08 -0.74,-1.76c0,-0.73 0.25,-1.34 0.74,-1.84c0.5,-0.49 1.08,-0.74 1.76,-0.74c0.73,0 1.34,0.25 1.84,0.74c0.5,0.5 0.74,1.11 0.74,1.84c0,0.68 -0.25,1.27 -0.74,1.76c-0.5,0.49 -1.11,0.74 -1.84,0.74z"/>
            <path id="svg_33"
                  d="m724.65,295.41l-59.13,0c-0.68,0 -1.27,-0.23 -1.76,-0.7c-0.5,-0.47 -0.74,-1.07 -0.74,-1.8c0,-0.68 0.25,-1.27 0.74,-1.76c0.5,-0.5 1.08,-0.74 1.76,-0.74l31.25,0l0,-7.6l-22.79,0c-0.68,0 -1.27,-0.25 -1.76,-0.74c-0.5,-0.49 -0.74,-1.11 -0.74,-1.84c0,-0.68 0.25,-1.26 0.74,-1.76c0.5,-0.49 1.08,-0.74 1.76,-0.74l22.79,0l0,-7.6l-23.34,0c-0.47,0.94 -0.94,1.88 -1.41,2.82c-0.47,0.94 -1.23,1.41 -2.27,1.41c-0.68,0 -1.27,-0.25 -1.76,-0.74c-0.5,-0.49 -0.74,-1.08 -0.74,-1.76c0,-0.42 0.1,-0.81 0.31,-1.17l4.15,-8.38c0.52,-0.94 1.28,-1.41 2.27,-1.41c0.73,0 1.34,0.23 1.84,0.7c0.5,0.47 0.74,1.07 0.74,1.8c0,0.42 -0.18,0.97 -0.55,1.64l20.75,0l0,-2.51c0,-0.68 0.25,-1.26 0.74,-1.76c0.5,-0.49 1.11,-0.74 1.84,-0.74c0.68,0 1.27,0.25 1.76,0.74c0.5,0.5 0.74,1.08 0.74,1.76l0,2.51l27.02,0c0.68,0 1.27,0.25 1.76,0.74c0.5,0.5 0.74,1.11 0.74,1.84c0,0.68 -0.23,1.27 -0.7,1.76c-0.47,0.5 -1.07,0.74 -1.8,0.74l-27.02,0l0,20.28l22.79,0c0.68,0 1.27,0.25 1.76,0.74c0.5,0.5 0.74,1.08 0.74,1.76c0,0.73 -0.25,1.33 -0.74,1.8c-0.48,0.48 -1.06,0.71 -1.74,0.71zm0,-37.98l-50.99,0c-2.45,0 -4.14,-0.49 -5.05,-1.49c-0.91,-0.99 -1.37,-2.74 -1.37,-5.25l0,-18.56c0.05,-2.19 0.59,-3.72 1.61,-4.58c1.02,-0.86 2.73,-1.29 5.13,-1.29l51.06,0c2.24,0 3.85,0.45 4.82,1.33c0.97,0.89 1.47,2.4 1.53,4.54l0,18.56c0,2.56 -0.47,4.32 -1.41,5.29c-0.95,0.96 -2.72,1.45 -5.33,1.45zm1.64,-5.02l0,-4.23l0.08,0l0,-16.92l-54.04,0l0,21.15l53.96,0zm-5.87,-8.06l-42.21,0c-0.68,0 -1.27,-0.25 -1.76,-0.74c-0.5,-0.49 -0.74,-1.08 -0.74,-1.76c0,-0.68 0.25,-1.26 0.74,-1.76c0.5,-0.49 1.08,-0.74 1.76,-0.74l42.21,0c0.68,0 1.27,0.25 1.76,0.74c0.5,0.5 0.74,1.08 0.74,1.76c0,0.68 -0.25,1.27 -0.74,1.76c-0.49,0.49 -1.08,0.74 -1.76,0.74zm4.23,38.45l-16.92,0c-0.68,0 -1.27,-0.25 -1.76,-0.74c-0.5,-0.49 -0.74,-1.11 -0.74,-1.84c0,-0.68 0.25,-1.26 0.74,-1.76c0.5,-0.49 1.08,-0.74 1.76,-0.74l16.92,0c0.68,0 1.27,0.25 1.76,0.74c0.5,0.5 0.74,1.08 0.74,1.76c0,0.73 -0.25,1.35 -0.74,1.84c-0.5,0.49 -1.08,0.74 -1.76,0.74zm8.46,12.61c-0.73,0 -1.35,-0.23 -1.84,-0.7c-0.5,-0.47 -0.74,-1.07 -0.74,-1.8c0,-0.68 0.25,-1.27 0.74,-1.76c0.5,-0.5 1.11,-0.74 1.84,-0.74c0.68,0 1.27,0.25 1.76,0.74c0.5,0.5 0.74,1.08 0.74,1.76c0,0.73 -0.25,1.33 -0.74,1.8c-0.5,0.47 -1.08,0.7 -1.76,0.7z"/>
        </g>
        <path id="svg_34"
              d="m605.82,242.96l-24.02,0c-1.04,0 -1.89,-0.85 -1.89,-1.89l0,-1.71c0,-1.04 0.85,-1.89 1.89,-1.89l24.02,0c1.04,0 1.89,0.85 1.89,1.89l0,1.71c0,1.04 -0.85,1.89 -1.89,1.89z"/>
        <path id="svg_35"
              d="m583.58,285.78c-1.99,-1.31 -1.36,-2.44 -0.67,-3.94l19.17,-41.4c0.78,-1.69 1.78,-3.01 3.94,-1.9c2.19,1.12 1.89,2.52 1.11,4.2l-19.17,41.4c-0.78,1.69 -2.2,2.69 -3.94,1.9c-0.15,-0.07 -0.3,-0.16 -0.44,-0.26z"/>
        <path id="svg_36"
              d="m590.58,261.34c-0.98,0.3 -2.1,-0.26 -2.69,-1.43l-5.27,-10.42c-0.7,-1.39 -0.4,-3.13 0.68,-3.87c1.08,-0.75 2.52,-0.22 3.22,1.17l5.27,10.43c0.7,1.39 0.4,3.13 -0.68,3.87c-0.17,0.11 -0.35,0.19 -0.53,0.25z"/>
        <path id="svg_37"
              d="m612.27,260.45l0,-28.6c0,-0.34 0.11,-0.67 0.31,-0.96c0.83,-1.78 3.4,-4.21 9.05,-4.21l21.21,0c3.01,0 7.49,1.66 7.49,6.22l0,27.54c0,1.23 0,1.78 -3.12,1.78s-3.12,-0.55 -3.12,-1.78l0,-27.54c0,-1.69 -1.04,-1.78 -1.25,-1.78l-21.21,0c-2.43,0 -3,0.83 -3.12,1.11l0,28.21c0,1.23 -0.62,1.78 -3.12,1.78c-3.12,0 -3.12,-0.55 -3.12,-1.77z"/>
        <path id="svg_38"
              d="m600.81,282.64c-0.97,0.29 -2.07,-0.25 -2.66,-1.41l-5.2,-10.29c-0.69,-1.38 -0.4,-3.09 0.67,-3.83c1.06,-0.74 2.49,-0.22 3.18,1.15l5.2,10.29c0.69,1.37 0.4,3.09 -0.67,3.83c-0.16,0.12 -0.34,0.2 -0.52,0.26z"/>
        <path id="svg_39"
              d="m628.59,260.97l0,-19.97c0,-1.04 0.85,-1.89 1.89,-1.89l1.36,0c1.04,0 1.89,0.85 1.89,1.89l0,19.97c0,1.04 -0.85,1.89 -1.89,1.89l-1.36,0c-1.05,0 -1.89,-0.84 -1.89,-1.89z"/>
        <path id="svg_40"
              d="m628.73,263.65l0,-20.62c0,-1.04 0.85,-1.89 1.89,-1.89l1.36,0c1.04,0 1.89,0.85 1.89,1.89l0,20.62c0,1.04 -0.85,1.89 -1.89,1.89l-1.36,0c-1.04,0 -1.89,-0.84 -1.89,-1.89z"/>
        <path id="svg_41"
              d="m635.24,266.77l0,0c-1.53,0 -2.78,1.05 -2.78,2.33l0,20.77c0,3.19 3.08,5.77 6.88,5.77l13.11,0c1.53,0 2.78,-1.05 2.78,-2.33l0,-0.47c0,-1.28 -1.25,-2.33 -2.78,-2.33l-12.77,0c-0.92,0 -1.67,-0.63 -1.67,-1.4l0,-20.01c0.01,-1.28 -1.24,-2.33 -2.77,-2.33z"/>
        <path id="svg_42"
              d="m655.24,285.47c0,1.66 -1.26,3 -2.81,3c-1.55,0 -2.81,-1.34 -2.81,-3c0,-1.66 1.26,-3 2.81,-3c1.55,0 2.81,1.34 2.81,3z"/>
        <path id="svg_43"
              d="m624.06,281.25c-1.62,-0.93 -1.81,-1.79 -1.3,-3.07l5.98,-15.14c0.62,-2.31 1.63,-2.2 3.41,-1.4c1.63,0.73 2.12,1.79 1.41,3.67l-5.98,15.14c-0.55,1.4 -0.77,1.64 -3.18,0.99c-0.13,-0.03 -0.23,-0.11 -0.34,-0.19z"/>
        <path id="svg_44"
              d="m617.69,294.83c-1.6,-0.99 -1.74,-1.88 -1.15,-3.18l7.04,-15.44c0.77,-2.36 1.8,-2.23 3.59,-1.37c1.63,0.78 2.06,1.89 1.23,3.8l-7.04,15.44c-0.65,1.43 -0.89,1.67 -3.32,0.95c-0.14,-0.03 -0.25,-0.12 -0.35,-0.2z"/>
        <path id="svg_45"
              d="m600.94,292.61c0.24,-1.75 0.94,-2.21 2.28,-2.2l15.88,0.14c2.31,-0.24 2.59,0.69 2.53,2.54c-0.05,1.69 -0.83,2.48 -2.78,2.5l-15.88,-0.14c-1.47,-0.01 -1.77,-0.13 -2.08,-2.48c-0.02,-0.12 0.02,-0.24 0.05,-0.36z"/>
        <path id="svg_46"
              d="m798.35,252.13c0,2.17 -1.41,3.12 -10.79,3.12l-35.64,0c-9.38,0 -10.79,-0.95 -10.79,-3.12s1.41,-3.12 10.79,-3.12l35.64,0c9.38,0 10.79,0.95 10.79,3.12z"/>
        <path id="svg_47"
              d="m761.23,227.72c1.78,1.24 2.1,2.45 -0.98,6.85l-11.68,16.72c-3.07,4.4 -4.31,4.52 -6.09,3.28c-1.78,-1.24 -2.1,-2.45 0.98,-6.85l11.67,-16.72c3.08,-4.4 4.32,-4.52 6.1,-3.28z"/>
        <path id="svg_48"
              d="m744.22,266.95c2.17,-0.01 3.12,0.68 3.15,5.34l0.11,17.7c0.03,4.66 -0.92,5.36 -3.09,5.37c-2.17,0.01 -3.12,-0.68 -3.15,-5.34l-0.11,-17.7c-0.03,-4.66 0.92,-5.36 3.09,-5.37z"/>
        <path id="svg_49"
              d="m801.94,269.25c0,2.17 -1.49,3.12 -11.42,3.12l-37.75,0c-9.93,0 -11.42,-0.95 -11.42,-3.12s1.49,-3.12 11.42,-3.12l37.75,0c9.93,0 11.42,0.95 11.42,3.12z"/>
        <path id="svg_50"
              d="m799.04,266.95c2.17,-0.01 3.12,0.68 3.15,5.33l0.11,17.69c0.03,4.66 -0.92,5.36 -3.09,5.37c-2.17,0.01 -3.12,-0.68 -3.15,-5.33l-0.11,-17.69c-0.02,-4.65 0.92,-5.36 3.09,-5.37z"/>
        <path id="svg_51"
              d="m801.94,292.5c0,2.17 -1.49,3.12 -11.42,3.12l-37.75,0c-9.93,0 -11.42,-0.95 -11.42,-3.12c0,-2.17 1.49,-3.12 11.42,-3.12l37.75,0c9.93,0 11.42,0.95 11.42,3.12z"/>
        <path id="svg_52"
              d="m791.65,242.81c1.84,-1.15 2.91,-1.23 4.69,1.61l6.76,10.8c1.78,2.84 1.24,3.77 -0.6,4.92c-1.84,1.15 -2.91,1.23 -4.69,-1.61l-6.76,-10.8c-1.78,-2.84 -1.24,-3.77 0.6,-4.92z"/>
        <path id="svg_53"
              d="m791.88,239.33c0,1.66 -1.26,3 -2.81,3s-2.81,-1.34 -2.81,-3s1.26,-3 2.81,-3s2.81,1.35 2.81,3z"/>
        <circle id="svg_54" r="2.71" cy="225.35" cx="535.96"/>
        <circle id="svg_55" r="3" cy="285.47" cx="652.43"/>
        <circle id="svg_56" r="3" cy="293" cx="733.07"/>
        <circle id="svg_57" r="3" cy="293" cx="733.07"/>
        <circle id="svg_58" r="2.87" cy="239.33" cx="789.07"/>
        <g id="svg_59">
            <path id="svg_60"
                  d="m491.59,347.88c0,0.68 -0.25,1.27 -0.74,1.76c-0.5,0.5 -1.08,0.74 -1.76,0.74l-39.24,0c-0.37,0 -0.58,0.18 -0.63,0.55c-0.26,2.61 -0.65,5.43 -1.17,8.46l0,0.16c0,0.31 0.16,0.47 0.47,0.47l28.9,0c1.25,0 2.27,0.45 3.05,1.33c0.73,0.78 1.1,1.7 1.1,2.74l0,0.47c-0.73,7.57 -1.53,13.17 -2.39,16.8c-0.86,3.63 -1.95,6.07 -3.25,7.32c-1.41,1.25 -3.45,2.01 -6.11,2.27l-2.35,0c-2.19,0 -4.73,-0.08 -7.6,-0.23c-1.51,-0.1 -2.58,-1.02 -3.21,-2.74c-0.05,-0.16 -0.08,-0.34 -0.08,-0.55c0,-0.31 0.1,-0.63 0.31,-0.94c0.26,-0.42 0.6,-0.63 1.02,-0.63l0.16,0c2.92,0.16 6.24,0.23 9.95,0.23c1.77,0 2.95,-0.23 3.52,-0.7c1.93,-1.83 3.47,-8.46 4.62,-19.89l0,-0.16c0,-0.31 -0.16,-0.47 -0.47,-0.47l-28.35,0c-0.42,0 -0.68,0.18 -0.78,0.55c-1.62,5.59 -4.11,10.44 -7.48,14.57c-3.37,4.13 -8,7.52 -13.9,10.18c-0.37,0.1 -0.76,0.16 -1.17,0.16c-0.37,0 -0.82,-0.08 -1.37,-0.23c-0.55,-0.16 -1.06,-0.55 -1.53,-1.17c-0.31,-0.42 -0.47,-0.84 -0.47,-1.25c0,-0.16 0.03,-0.31 0.08,-0.47c0.1,-0.63 0.47,-1.07 1.1,-1.33c3.24,-1.41 6.08,-3.11 8.54,-5.09c2.45,-1.98 4.44,-4.03 5.95,-6.15c1.51,-2.11 2.79,-4.55 3.84,-7.32c1.04,-2.77 1.8,-5.39 2.27,-7.87c0.47,-2.48 0.89,-5.31 1.25,-8.5c0,-0.36 -0.18,-0.55 -0.55,-0.55l-19.97,0c-0.68,0 -1.27,-0.25 -1.76,-0.74c-0.5,-0.49 -0.74,-1.08 -0.74,-1.76c0,-0.68 0.25,-1.26 0.74,-1.76c0.5,-0.49 1.08,-0.74 1.76,-0.74l29.6,0c0.36,0 0.55,-0.18 0.55,-0.55l0,-7.44c0,-0.68 0.26,-1.28 0.78,-1.8c0.52,-0.52 1.15,-0.78 1.88,-0.78c0.68,0 1.28,0.26 1.8,0.78c0.52,0.52 0.78,1.12 0.78,1.8l0,7.44c0,0.37 0.18,0.55 0.55,0.55l30,0c0.68,0 1.27,0.25 1.76,0.74c0.49,0.47 0.74,1.06 0.74,1.74zm-49.5,-9.95c-0.73,0 -1.36,-0.26 -1.88,-0.78c-0.52,-0.52 -0.78,-1.12 -0.78,-1.8l0,-5.01c0,-0.36 -0.18,-0.55 -0.55,-0.55l-15.27,0c-0.68,0 -1.25,-0.25 -1.72,-0.74c-0.47,-0.49 -0.7,-1.08 -0.7,-1.76c0,-0.68 0.23,-1.25 0.7,-1.72c0.47,-0.47 1.04,-0.7 1.72,-0.7l15.27,0c0.36,0 0.55,-0.18 0.55,-0.55l0,-3.84c0,-0.73 0.26,-1.34 0.78,-1.84c0.52,-0.49 1.15,-0.74 1.88,-0.74c0.68,0 1.28,0.25 1.8,0.74c0.52,0.5 0.78,1.11 0.78,1.84l0,3.84c0,0.37 0.18,0.55 0.55,0.55l21.22,0c0.36,0 0.55,-0.18 0.55,-0.55l0,-3.76c0,-0.73 0.26,-1.36 0.78,-1.88c0.52,-0.52 1.15,-0.78 1.88,-0.78c0.73,0 1.36,0.26 1.88,0.78c0.52,0.52 0.78,1.15 0.78,1.88l0,3.76c0,0.37 0.18,0.55 0.55,0.55l15.74,0c0.68,0 1.25,0.23 1.72,0.7c0.47,0.47 0.7,1.05 0.7,1.72c0,0.68 -0.23,1.27 -0.7,1.76c-0.47,0.5 -1.04,0.74 -1.72,0.74l-15.74,0c-0.37,0 -0.55,0.18 -0.55,0.55l0,4.93c0,0.73 -0.26,1.36 -0.78,1.88c-0.52,0.52 -1.15,0.78 -1.88,0.78c-0.73,0 -1.36,-0.26 -1.88,-0.78c-0.52,-0.52 -0.78,-1.15 -0.78,-1.88l0,-4.93c0,-0.36 -0.18,-0.55 -0.55,-0.55l-21.22,0c-0.37,0 -0.55,0.18 -0.55,0.55l0,5.01c0,0.68 -0.26,1.28 -0.78,1.8c-0.52,0.52 -1.12,0.78 -1.8,0.78z"
                  class="st4"/>
            <path id="svg_61"
                  d="m569.6,331.66l-67.75,0c-0.68,-0.05 -1.24,-0.33 -1.68,-0.82c-0.44,-0.49 -0.67,-1.06 -0.67,-1.68c0,-0.68 0.22,-1.26 0.67,-1.76c0.44,-0.49 1,-0.77 1.68,-0.82l67.75,0c0.68,0 1.27,0.25 1.76,0.74c0.5,0.5 0.74,1.11 0.74,1.84c0,0.68 -0.25,1.27 -0.74,1.76c-0.5,0.5 -1.08,0.74 -1.76,0.74zm-4.39,59.06c-0.68,0 -1.25,-0.21 -1.72,-0.63l-27.73,-25.85l-27.96,25.85c-0.47,0.42 -1.04,0.63 -1.72,0.63c-0.68,0 -1.27,-0.23 -1.76,-0.7c-0.5,-0.47 -0.74,-1.07 -0.74,-1.8c0,-0.73 0.26,-1.36 0.78,-1.88l27.64,-25.54l-23.42,-21.38c-0.52,-0.47 -0.78,-1.1 -0.78,-1.88c0,-0.68 0.25,-1.26 0.74,-1.76c0.5,-0.49 1.08,-0.74 1.76,-0.74c0.68,0 1.25,0.23 1.72,0.7l23.73,21.62l23.5,-21.62c0.47,-0.47 1.04,-0.7 1.72,-0.7c0.68,0 1.27,0.25 1.76,0.74c0.5,0.5 0.74,1.08 0.74,1.76c0,0.73 -0.26,1.36 -0.78,1.88l-23.18,21.38l27.41,25.53c0.52,0.52 0.78,1.15 0.78,1.88c0,0.73 -0.25,1.33 -0.74,1.8c-0.48,0.47 -1.07,0.71 -1.75,0.71zm-29.6,-67.52c-0.68,0 -1.27,-0.25 -1.76,-0.74c-0.5,-0.49 -0.74,-1.08 -0.74,-1.76c0,-0.73 0.25,-1.34 0.74,-1.84c0.5,-0.49 1.08,-0.74 1.76,-0.74c0.73,0 1.34,0.25 1.84,0.74c0.5,0.5 0.74,1.11 0.74,1.84c0,0.68 -0.25,1.27 -0.74,1.76c-0.5,0.5 -1.11,0.74 -1.84,0.74z"
                  class="st4"/>
            <path id="svg_62"
                  d="m724.34,390.72l-59.13,0c-0.68,0 -1.27,-0.23 -1.76,-0.7c-0.5,-0.47 -0.74,-1.07 -0.74,-1.8c0,-0.68 0.25,-1.27 0.74,-1.76c0.5,-0.5 1.08,-0.74 1.76,-0.74l31.25,0l0,-7.6l-22.79,0c-0.68,0 -1.27,-0.25 -1.76,-0.74c-0.5,-0.49 -0.74,-1.11 -0.74,-1.84c0,-0.68 0.25,-1.26 0.74,-1.76c0.5,-0.49 1.08,-0.74 1.76,-0.74l22.79,0l0,-7.6l-23.34,0c-0.47,0.94 -0.94,1.88 -1.41,2.82c-0.47,0.94 -1.23,1.41 -2.27,1.41c-0.68,0 -1.27,-0.25 -1.76,-0.74c-0.5,-0.49 -0.74,-1.08 -0.74,-1.76c0,-0.42 0.1,-0.81 0.31,-1.17l4.15,-8.38c0.52,-0.94 1.28,-1.41 2.27,-1.41c0.73,0 1.34,0.23 1.84,0.7c0.5,0.47 0.74,1.07 0.74,1.8c0,0.42 -0.18,0.97 -0.55,1.64l20.75,0l0,-2.51c0,-0.68 0.25,-1.26 0.74,-1.76c0.5,-0.49 1.11,-0.74 1.84,-0.74c0.68,0 1.27,0.25 1.76,0.74c0.5,0.5 0.74,1.08 0.74,1.76l0,2.51l27.02,0c0.68,0 1.27,0.25 1.76,0.74c0.5,0.5 0.74,1.11 0.74,1.84c0,0.68 -0.23,1.27 -0.7,1.76c-0.47,0.5 -1.07,0.74 -1.8,0.74l-27.02,0l0,20.28l22.79,0c0.68,0 1.27,0.25 1.76,0.74c0.5,0.5 0.74,1.08 0.74,1.76c0,0.73 -0.25,1.33 -0.74,1.8c-0.48,0.47 -1.06,0.71 -1.74,0.71zm0,-37.99l-50.99,0c-2.45,0 -4.14,-0.49 -5.05,-1.49c-0.91,-0.99 -1.37,-2.74 -1.37,-5.25l0,-18.56c0.05,-2.19 0.59,-3.72 1.61,-4.58c1.02,-0.86 2.73,-1.29 5.13,-1.29l51.06,0c2.24,0 3.85,0.45 4.82,1.33c0.97,0.89 1.47,2.4 1.53,4.54l0,18.57c0,2.56 -0.47,4.32 -1.41,5.29c-0.95,0.96 -2.72,1.44 -5.33,1.44zm1.64,-5.01l0,-4.23l0.08,0l0,-16.92l-54.04,0l0,21.15l53.96,0zm-5.87,-8.07l-42.21,0c-0.68,0 -1.27,-0.25 -1.76,-0.74c-0.5,-0.49 -0.74,-1.08 -0.74,-1.76c0,-0.68 0.25,-1.26 0.74,-1.76c0.5,-0.49 1.08,-0.74 1.76,-0.74l42.21,0c0.68,0 1.27,0.25 1.76,0.74c0.5,0.5 0.74,1.08 0.74,1.76c0,0.68 -0.25,1.27 -0.74,1.76c-0.5,0.5 -1.08,0.74 -1.76,0.74zm4.23,38.46l-16.92,0c-0.68,0 -1.27,-0.25 -1.76,-0.74c-0.5,-0.49 -0.74,-1.11 -0.74,-1.84c0,-0.68 0.25,-1.26 0.74,-1.76c0.5,-0.49 1.08,-0.74 1.76,-0.74l16.92,0c0.68,0 1.27,0.25 1.76,0.74c0.5,0.5 0.74,1.08 0.74,1.76c0,0.73 -0.25,1.35 -0.74,1.84c-0.5,0.49 -1.08,0.74 -1.76,0.74zm8.46,12.61c-0.73,0 -1.35,-0.23 -1.84,-0.7c-0.5,-0.47 -0.74,-1.07 -0.74,-1.8c0,-0.68 0.25,-1.27 0.74,-1.76c0.5,-0.5 1.11,-0.74 1.84,-0.74c0.68,0 1.27,0.25 1.76,0.74c0.5,0.5 0.74,1.08 0.74,1.76c0,0.73 -0.25,1.33 -0.74,1.8c-0.5,0.46 -1.09,0.7 -1.76,0.7z"
                  class="st4"/>
        </g>
        <path id="svg_63"
              d="m605.51,338.26l-24.02,0c-1.04,0 -1.89,-0.85 -1.89,-1.89l0,-1.71c0,-1.04 0.85,-1.89 1.89,-1.89l24.02,0c1.04,0 1.89,0.85 1.89,1.89l0,1.71c0,1.05 -0.85,1.89 -1.89,1.89z"
              class="st4"/>
        <path id="svg_64"
              d="m583.27,381.08c-1.99,-1.31 -1.36,-2.44 -0.67,-3.94l19.17,-41.4c0.78,-1.69 1.78,-3.01 3.94,-1.9c2.19,1.12 1.89,2.52 1.11,4.2l-19.17,41.4c-0.78,1.69 -2.2,2.69 -3.94,1.9c-0.16,-0.07 -0.3,-0.15 -0.44,-0.26z"
              class="st4"/>
        <path id="svg_65"
              d="m590.27,356.65c-0.98,0.3 -2.1,-0.26 -2.69,-1.43l-5.27,-10.42c-0.7,-1.39 -0.4,-3.13 0.68,-3.87c1.08,-0.75 2.52,-0.22 3.22,1.17l5.27,10.43c0.7,1.39 0.4,3.13 -0.68,3.87c-0.17,0.1 -0.35,0.19 -0.53,0.25z"
              class="st4"/>
        <path id="svg_66"
              d="m611.96,355.75l0,-28.6c0,-0.34 0.11,-0.67 0.31,-0.96c0.83,-1.78 3.4,-4.21 9.05,-4.21l21.21,0c3.01,0 7.49,1.66 7.49,6.22l0,27.54c0,1.23 0,1.78 -3.12,1.78s-3.12,-0.55 -3.12,-1.78l0,-27.54c0,-1.69 -1.04,-1.78 -1.25,-1.78l-21.21,0c-2.43,0 -3,0.83 -3.12,1.11l0,28.21c0,1.23 -0.62,1.78 -3.12,1.78c-3.12,0.01 -3.12,-0.54 -3.12,-1.77z"
              class="st4"/>
        <path id="svg_67"
              d="m600.5,377.95c-0.97,0.29 -2.07,-0.25 -2.66,-1.41l-5.2,-10.29c-0.69,-1.38 -0.4,-3.09 0.67,-3.83c1.06,-0.74 2.49,-0.22 3.18,1.15l5.2,10.29c0.69,1.37 0.4,3.09 -0.67,3.83c-0.16,0.12 -0.34,0.2 -0.52,0.26z"
              class="st4"/>
        <path id="svg_68"
              d="m628.28,356.28l0,-19.97c0,-1.04 0.85,-1.89 1.89,-1.89l1.36,0c1.04,0 1.89,0.85 1.89,1.89l0,19.97c0,1.04 -0.85,1.89 -1.89,1.89l-1.36,0c-1.05,0 -1.89,-0.85 -1.89,-1.89z"
              class="st4"/>
        <path id="svg_69"
              d="m628.42,358.96l0,-20.62c0,-1.04 0.85,-1.89 1.89,-1.89l1.36,0c1.04,0 1.89,0.85 1.89,1.89l0,20.62c0,1.04 -0.85,1.89 -1.89,1.89l-1.36,0c-1.04,0 -1.89,-0.85 -1.89,-1.89z"
              class="st4"/>
        <path id="svg_70"
              d="m634.93,362.08l0,0c-1.53,0 -2.78,1.05 -2.78,2.33l0,20.77c0,3.19 3.08,5.77 6.88,5.77l13.11,0c1.53,0 2.78,-1.05 2.78,-2.33l0,-0.47c0,-1.28 -1.25,-2.33 -2.78,-2.33l-12.77,0c-0.92,0 -1.67,-0.63 -1.67,-1.4l0,-20.02c0.01,-1.27 -1.24,-2.32 -2.77,-2.32z"
              class="st4"/>
        <path id="svg_71"
              d="m654.92,380.78c0,1.66 -1.26,3 -2.81,3s-2.81,-1.34 -2.81,-3c0,-1.66 1.26,-3 2.81,-3s2.81,1.34 2.81,3z"
              class="st4"/>
        <path id="svg_72"
              d="m623.75,376.56c-1.62,-0.93 -1.81,-1.79 -1.3,-3.07l5.98,-15.14c0.62,-2.31 1.63,-2.2 3.41,-1.4c1.63,0.73 2.12,1.79 1.41,3.67l-5.98,15.14c-0.55,1.4 -0.77,1.64 -3.18,0.99c-0.13,-0.03 -0.24,-0.12 -0.34,-0.19z"
              class="st4"/>
        <path id="svg_73"
              d="m617.38,390.14c-1.6,-0.99 -1.74,-1.88 -1.15,-3.18l7.04,-15.44c0.77,-2.36 1.8,-2.23 3.59,-1.37c1.63,0.78 2.06,1.89 1.23,3.8l-7.04,15.44c-0.65,1.43 -0.89,1.67 -3.32,0.95c-0.14,-0.03 -0.25,-0.12 -0.35,-0.2z"
              class="st4"/>
        <path id="svg_74"
              d="m600.63,387.91c0.24,-1.75 0.94,-2.21 2.28,-2.2l15.88,0.14c2.31,-0.24 2.59,0.69 2.53,2.54c-0.05,1.69 -0.83,2.48 -2.78,2.5l-15.88,-0.14c-1.47,-0.01 -1.77,-0.13 -2.08,-2.48c-0.02,-0.11 0.02,-0.24 0.05,-0.36z"
              class="st4"/>
        <path id="svg_75"
              d="m798.04,347.44c0,2.17 -1.41,3.12 -10.79,3.12l-35.64,0c-9.38,0 -10.79,-0.95 -10.79,-3.12c0,-2.17 1.41,-3.12 10.79,-3.12l35.64,0c9.38,0 10.79,0.95 10.79,3.12z"
              class="st4"/>
        <path id="svg_76"
              d="m760.91,323.03c1.78,1.24 2.1,2.45 -0.98,6.85l-11.68,16.72c-3.07,4.4 -4.31,4.52 -6.09,3.28s-2.1,-2.45 0.98,-6.85l11.68,-16.72c3.08,-4.41 4.32,-4.53 6.09,-3.28z"
              class="st4"/>
        <path id="svg_77"
              d="m743.91,362.25c2.17,-0.01 3.12,0.68 3.15,5.34l0.11,17.7c0.03,4.66 -0.92,5.36 -3.09,5.37c-2.17,0.01 -3.12,-0.68 -3.15,-5.34l-0.11,-17.7c-0.03,-4.65 0.92,-5.35 3.09,-5.37z"
              class="st4"/>
        <path id="svg_78"
              d="m801.63,364.56c0,2.17 -1.49,3.12 -11.42,3.12l-37.75,0c-9.93,0 -11.42,-0.95 -11.42,-3.12s1.49,-3.12 11.42,-3.12l37.75,0c9.93,0 11.42,0.95 11.42,3.12z"
              class="st4"/>
        <path id="svg_79"
              d="m798.73,362.26c2.17,-0.01 3.12,0.68 3.15,5.33l0.11,17.69c0.03,4.66 -0.92,5.36 -3.09,5.37c-2.17,0.01 -3.12,-0.68 -3.15,-5.33l-0.11,-17.69c-0.02,-4.66 0.92,-5.36 3.09,-5.37z"
              class="st4"/>
        <path id="svg_80"
              d="m801.63,387.81c0,2.17 -1.49,3.12 -11.42,3.12l-37.75,0c-9.93,0 -11.42,-0.95 -11.42,-3.12c0,-2.17 1.49,-3.12 11.42,-3.12l37.75,0c9.93,0 11.42,0.95 11.42,3.12z"
              class="st4"/>
        <path id="svg_81"
              d="m791.34,338.11c1.84,-1.15 2.91,-1.23 4.69,1.61l6.76,10.8c1.78,2.84 1.24,3.77 -0.6,4.92c-1.84,1.15 -2.91,1.23 -4.69,-1.61l-6.76,-10.8c-1.78,-2.83 -1.24,-3.76 0.6,-4.92z"
              class="st4"/>
        <path id="svg_82"
              d="m791.57,334.64c0,1.66 -1.26,3 -2.81,3s-2.81,-1.34 -2.81,-3c0,-1.66 1.26,-3 2.81,-3s2.81,1.34 2.81,3z"
              class="st4"/>
        <circle id="svg_83" r="2.71" cy="320.66" cx="535.65" class="st4"/>
        <circle id="svg_84" r="3" cy="380.78" cx="652.11" class="st4"/>
        <circle id="svg_85" r="3" cy="388.31" cx="732.76" class="st4"/>
        <circle id="svg_86" r="3" cy="388.31" cx="732.76" class="st4"/>
        <circle id="svg_87" r="2.87" cy="334.64" cx="788.76" class="st4"/>
        <g id="svg_118">
            <g id="svg_88">
                <path id="svg_89"
                      d="m70.95,29.979989c0,0.68 -0.25,1.27 -0.74,1.76c-0.5,0.5 -1.08,0.74 -1.76,0.74l-39.24,0c-0.37,0 -0.57,0.18 -0.63,0.55c-0.26,2.61 -0.65,5.43 -1.17,8.46l0,0.16c0,0.31 0.16,0.47 0.47,0.47l28.9,0c1.25,0 2.27,0.45 3.05,1.33c0.73,0.78 1.1,1.7 1.1,2.74l0,0.47c-0.73,7.57 -1.53,13.17 -2.39,16.8c-0.86,3.63 -1.95,6.07 -3.25,7.32c-1.41,1.25 -3.45,2.01 -6.11,2.27l-2.35,0c-2.19,0 -4.73,-0.08 -7.6,-0.23c-1.51,-0.1 -2.58,-1.02 -3.21,-2.74c-0.05,-0.16 -0.08,-0.34 -0.08,-0.55c0,-0.31 0.1,-0.63 0.31,-0.94c0.26,-0.42 0.6,-0.63 1.02,-0.63l0.16,0c2.92,0.16 6.24,0.23 9.95,0.23c1.77,0 2.95,-0.23 3.52,-0.7c1.93,-1.83 3.47,-8.46 4.62,-19.89l0,-0.16c0,-0.31 -0.16,-0.47 -0.47,-0.47l-28.35,0c-0.42,0 -0.68,0.18 -0.78,0.55c-1.62,5.59 -4.11,10.44 -7.48,14.57c-3.37,4.13 -8,7.52 -13.9,10.18c-0.37,0.1 -0.76,0.16 -1.17,0.16c-0.37,0 -0.82,-0.08 -1.37,-0.23c-0.55,-0.16 -1.06,-0.55 -1.53,-1.17c-0.31,-0.42 -0.47,-0.84 -0.47,-1.25c0,-0.16 0.03,-0.31 0.08,-0.47c0.1,-0.63 0.47,-1.07 1.1,-1.33c3.24,-1.41 6.08,-3.11 8.54,-5.09c2.45,-1.98 4.44,-4.03 5.95,-6.15c1.51,-2.11 2.79,-4.55 3.84,-7.32c1.04,-2.77 1.8,-5.39 2.27,-7.87c0.47,-2.48 0.89,-5.31 1.25,-8.5c0,-0.36 -0.18,-0.55 -0.55,-0.55l-19.98,0c-0.68,0 -1.27,-0.25 -1.76,-0.74c-0.5,-0.49 -0.74,-1.08 -0.74,-1.76c0,-0.68 0.25,-1.26 0.74,-1.76c0.5,-0.49 1.08,-0.74 1.76,-0.74l29.6,0c0.36,0 0.55,-0.18 0.55,-0.55l0,-7.44c0,-0.68 0.26,-1.28 0.78,-1.8c0.52,-0.52 1.15,-0.78 1.88,-0.78c0.68,0 1.28,0.26 1.8,0.78c0.52,0.52 0.78,1.12 0.78,1.8l0,7.44c0,0.37 0.18,0.55 0.55,0.55l30,0c0.68,0 1.27,0.25 1.76,0.74c0.5,0.47 0.75,1.06 0.75,1.74zm-49.5,-9.95c-0.73,0 -1.36,-0.26 -1.88,-0.78c-0.52,-0.52 -0.78,-1.12 -0.78,-1.8l0,-5.01c0,-0.36 -0.18,-0.55 -0.55,-0.55l-15.27,0c-0.68,0 -1.25,-0.25 -1.72,-0.74c-0.47,-0.49 -0.7,-1.08 -0.7,-1.76c0,-0.68 0.23,-1.25 0.7,-1.72s1.04,-0.7 1.72,-0.7l15.27,0c0.36,0 0.55,-0.18 0.55,-0.55l0,-3.84c0,-0.73 0.26,-1.34 0.78,-1.84c0.52,-0.49 1.15,-0.74 1.88,-0.74c0.68,0 1.28,0.25 1.8,0.74c0.52,0.5 0.78,1.11 0.78,1.84l0,3.84c0,0.37 0.18,0.55 0.55,0.55l21.22,0c0.36,0 0.55,-0.18 0.55,-0.55l0,-3.76c0,-0.73 0.26,-1.36 0.78,-1.88c0.52,-0.52 1.15,-0.78 1.88,-0.78c0.73,0 1.36,0.26 1.88,0.78c0.52,0.52 0.78,1.15 0.78,1.88l0,3.76c0,0.37 0.18,0.55 0.55,0.55l15.74,0c0.68,0 1.25,0.23 1.72,0.7c0.47,0.47 0.7,1.05 0.7,1.72c0,0.68 -0.23,1.27 -0.7,1.76c-0.47,0.5 -1.04,0.74 -1.72,0.74l-15.73,0c-0.37,0 -0.55,0.18 -0.55,0.55l0,4.93c0,0.73 -0.26,1.36 -0.78,1.88c-0.52,0.52 -1.15,0.78 -1.88,0.78c-0.73,0 -1.36,-0.26 -1.88,-0.78c-0.52,-0.52 -0.78,-1.15 -0.78,-1.88l0,-4.93c0,-0.36 -0.18,-0.55 -0.55,-0.55l-21.22,0c-0.37,0 -0.55,0.18 -0.55,0.55l0,5.01c0,0.68 -0.26,1.28 -0.78,1.8c-0.53,0.52 -1.13,0.78 -1.81,0.78z"
                      class="st4"/>
                <path id="svg_90"
                      d="m148.96,13.769989l-67.75,0c-0.68,-0.05 -1.24,-0.33 -1.68,-0.82c-0.44,-0.49 -0.67,-1.06 -0.67,-1.68c0,-0.68 0.22,-1.26 0.67,-1.76c0.44,-0.49 1,-0.77 1.68,-0.82l67.75,0c0.68,0 1.27,0.25 1.76,0.74c0.5,0.5 0.74,1.11 0.74,1.84c0,0.68 -0.25,1.27 -0.74,1.76c-0.5,0.49 -1.09,0.74 -1.76,0.74zm-4.39,59.05c-0.68,0 -1.25,-0.21 -1.72,-0.63l-27.73,-25.85l-27.96,25.85c-0.47,0.42 -1.04,0.63 -1.72,0.63c-0.68,0 -1.27,-0.23 -1.76,-0.7c-0.5,-0.47 -0.74,-1.07 -0.74,-1.8s0.26,-1.36 0.78,-1.88l27.65,-25.53l-23.42,-21.38c-0.52,-0.47 -0.78,-1.1 -0.78,-1.88c0,-0.68 0.25,-1.26 0.74,-1.76c0.5,-0.49 1.08,-0.74 1.76,-0.74c0.68,0 1.25,0.23 1.72,0.7l23.73,21.62l23.5,-21.62c0.47,-0.47 1.04,-0.7 1.72,-0.7c0.68,0 1.27,0.25 1.76,0.74c0.5,0.5 0.74,1.08 0.74,1.76c0,0.73 -0.26,1.36 -0.78,1.88l-23.18,21.38l27.41,25.53c0.52,0.52 0.78,1.15 0.78,1.88s-0.25,1.33 -0.74,1.8c-0.49,0.46 -1.08,0.7 -1.76,0.7zm-29.6,-67.51c-0.68,0 -1.27,-0.25 -1.76,-0.74c-0.5,-0.49 -0.74,-1.08 -0.74,-1.76c0,-0.73 0.25,-1.34 0.74,-1.84c0.5,-0.49 1.08,-0.74 1.76,-0.74c0.73,0 1.34,0.25 1.84,0.74c0.5,0.5 0.74,1.11 0.74,1.84c0,0.68 -0.25,1.27 -0.74,1.76c-0.5,0.49 -1.11,0.74 -1.84,0.74z"
                      class="st4"/>
                <path id="svg_91"
                      d="m303.7,72.819989l-59.13,0c-0.68,0 -1.27,-0.23 -1.76,-0.7c-0.5,-0.47 -0.74,-1.07 -0.74,-1.8c0,-0.68 0.25,-1.27 0.74,-1.76c0.5,-0.5 1.08,-0.74 1.76,-0.74l31.25,0l0,-7.6l-22.79,0c-0.68,0 -1.27,-0.25 -1.76,-0.74c-0.5,-0.49 -0.74,-1.11 -0.74,-1.84c0,-0.68 0.25,-1.26 0.74,-1.76c0.5,-0.49 1.08,-0.74 1.76,-0.74l22.79,0l0,-7.6l-23.34,0c-0.47,0.94 -0.94,1.88 -1.41,2.82c-0.47,0.94 -1.23,1.41 -2.27,1.41c-0.68,0 -1.27,-0.25 -1.76,-0.74c-0.5,-0.49 -0.74,-1.08 -0.74,-1.76c0,-0.42 0.1,-0.81 0.31,-1.17l4.15,-8.38c0.52,-0.94 1.28,-1.41 2.27,-1.41c0.73,0 1.34,0.23 1.84,0.7c0.5,0.47 0.74,1.07 0.74,1.8c0,0.42 -0.18,0.97 -0.55,1.64l20.75,0l0,-2.51c0,-0.68 0.25,-1.26 0.74,-1.76c0.5,-0.49 1.11,-0.74 1.84,-0.74c0.68,0 1.27,0.25 1.76,0.74c0.5,0.5 0.74,1.08 0.74,1.76l0,2.51l27.02,0c0.68,0 1.27,0.25 1.76,0.74c0.5,0.5 0.74,1.11 0.74,1.84c0,0.68 -0.23,1.27 -0.7,1.76c-0.47,0.5 -1.07,0.74 -1.8,0.74l-27.02,0l0,20.28l22.79,0c0.68,0 1.27,0.25 1.76,0.74c0.5,0.5 0.74,1.08 0.74,1.76c0,0.73 -0.25,1.33 -0.74,1.8c-0.48,0.47 -1.07,0.71 -1.74,0.71zm0,-37.99l-50.99,0c-2.45,0 -4.14,-0.49 -5.05,-1.49c-0.91,-0.99 -1.37,-2.74 -1.37,-5.25l0,-18.56c0.05,-2.19 0.59,-3.72 1.61,-4.58s2.73,-1.29 5.13,-1.29l51.06,0c2.24,0 3.85,0.45 4.82,1.33c0.97,0.89 1.47,2.4 1.53,4.54l0,18.56c0,2.56 -0.47,4.32 -1.41,5.29c-0.95,0.97 -2.72,1.45 -5.33,1.45zm1.64,-5.01l0,-4.23l0.08,0l0,-16.92l-54.04,0l0,21.15l53.96,0zm-5.87,-8.07l-42.21,0c-0.68,0 -1.27,-0.25 -1.76,-0.74c-0.5,-0.49 -0.74,-1.08 -0.74,-1.76c0,-0.68 0.25,-1.26 0.74,-1.76c0.5,-0.49 1.08,-0.74 1.76,-0.74l42.21,0c0.68,0 1.27,0.25 1.76,0.74c0.5,0.5 0.74,1.08 0.74,1.76c0,0.68 -0.25,1.27 -0.74,1.76c-0.5,0.5 -1.08,0.74 -1.76,0.74zm4.23,38.46l-16.92,0c-0.68,0 -1.27,-0.25 -1.76,-0.74c-0.5,-0.49 -0.74,-1.11 -0.74,-1.84c0,-0.68 0.25,-1.26 0.74,-1.76c0.5,-0.49 1.08,-0.74 1.76,-0.74l16.92,0c0.68,0 1.27,0.25 1.76,0.74c0.5,0.5 0.74,1.08 0.74,1.76c0,0.73 -0.25,1.35 -0.74,1.84c-0.5,0.49 -1.09,0.74 -1.76,0.74zm8.46,12.61c-0.73,0 -1.35,-0.23 -1.84,-0.7c-0.5,-0.47 -0.74,-1.07 -0.74,-1.8c0,-0.68 0.25,-1.27 0.74,-1.76c0.5,-0.5 1.11,-0.74 1.84,-0.74c0.68,0 1.27,0.25 1.76,0.74c0.5,0.5 0.74,1.08 0.74,1.76c0,0.73 -0.25,1.33 -0.74,1.8c-0.5,0.46 -1.09,0.7 -1.76,0.7z"
                      class="st4"/>
            </g>
            <path id="svg_92"
                  d="m184.87,20.369989l-24.02,0c-1.04,0 -1.89,-0.85 -1.89,-1.89l0,-1.71c0,-1.04 0.85,-1.89 1.89,-1.89l24.02,0c1.04,0 1.89,0.85 1.89,1.89l0,1.71c0,1.04 -0.85,1.89 -1.89,1.89z"
                  class="st4"/>
            <path id="svg_93"
                  d="m162.63,63.189989c-1.99,-1.31 -1.36,-2.44 -0.67,-3.94l19.17,-41.4c0.78,-1.69 1.78,-3.01 3.94,-1.9c2.19,1.12 1.89,2.52 1.11,4.2l-19.17,41.4c-0.78,1.69 -2.2,2.69 -3.94,1.9c-0.16,-0.07 -0.3,-0.16 -0.44,-0.26z"
                  class="st4"/>
            <path id="svg_94"
                  d="m169.63,38.749989c-0.98,0.3 -2.1,-0.26 -2.69,-1.43l-5.27,-10.42c-0.7,-1.39 -0.4,-3.13 0.68,-3.87c1.08,-0.75 2.52,-0.22 3.22,1.17l5.27,10.43c0.7,1.39 0.4,3.13 -0.68,3.87c-0.17,0.11 -0.35,0.19 -0.53,0.25z"
                  class="st4"/>
            <path id="svg_95"
                  d="m191.32,37.849989l0,-28.6c0,-0.34 0.11,-0.67 0.31,-0.96c0.83,-1.78 3.4,-4.21 9.05,-4.21l21.21,0c3.01,0 7.49,1.66 7.49,6.22l0,27.54c0,1.23 0,1.78 -3.12,1.78s-3.12,-0.55 -3.12,-1.78l0,-27.54c0,-1.69 -1.04,-1.78 -1.25,-1.78l-21.21,0c-2.43,0 -3,0.83 -3.12,1.11l0,28.21c0,1.23 -0.62,1.78 -3.12,1.78c-3.12,0.01 -3.12,-0.54 -3.12,-1.77z"
                  class="st4"/>
            <path id="svg_96"
                  d="m179.85,60.049989c-0.97,0.29 -2.07,-0.25 -2.66,-1.41l-5.2,-10.29c-0.69,-1.38 -0.4,-3.09 0.67,-3.83c1.06,-0.74 2.49,-0.22 3.18,1.15l5.2,10.29c0.69,1.38 0.4,3.09 -0.67,3.83c-0.16,0.12 -0.33,0.2 -0.52,0.26z"
                  class="st4"/>
            <path id="svg_97"
                  d="m207.63,38.379989l0,-19.97c0,-1.04 0.85,-1.89 1.89,-1.89l1.36,0c1.04,0 1.89,0.85 1.89,1.89l0,19.97c0,1.04 -0.85,1.89 -1.89,1.89l-1.36,0c-1.04,0 -1.89,-0.85 -1.89,-1.89z"
                  class="st4"/>
            <path id="svg_98"
                  d="m207.78,41.059989l0,-20.62c0,-1.04 0.85,-1.89 1.89,-1.89l1.36,0c1.04,0 1.89,0.85 1.89,1.89l0,20.62c0,1.04 -0.85,1.89 -1.89,1.89l-1.36,0c-1.04,0 -1.89,-0.84 -1.89,-1.89z"
                  class="st4"/>
            <path id="svg_99"
                  d="m214.29,44.179989l0,0c-1.53,0 -2.78,1.05 -2.78,2.33l0,20.77c0,3.19 3.08,5.77 6.88,5.77l13.11,0c1.53,0 2.78,-1.05 2.78,-2.33l0,-0.47c0,-1.28 -1.25,-2.33 -2.78,-2.33l-12.77,0c-0.92,0 -1.67,-0.63 -1.67,-1.4l0,-20.02c0.01,-1.27 -1.24,-2.32 -2.77,-2.32z"
                  class="st4"/>
            <path id="svg_100"
                  d="m234.28,62.879989c0,1.66 -1.26,3 -2.81,3c-1.55,0 -2.81,-1.34 -2.81,-3c0,-1.66 1.26,-3 2.81,-3c1.56,0 2.81,1.34 2.81,3z"/>
            <path id="svg_101"
                  d="m203.11,58.659989c-1.62,-0.93 -1.81,-1.79 -1.3,-3.07l5.98,-15.14c0.62,-2.31 1.63,-2.2 3.41,-1.4c1.63,0.73 2.12,1.79 1.41,3.67l-5.98,15.14c-0.55,1.4 -0.77,1.64 -3.18,0.99c-0.13,-0.03 -0.24,-0.12 -0.34,-0.19z"
                  class="st4"/>
            <path id="svg_102"
                  d="m196.73,72.239989c-1.6,-0.99 -1.74,-1.88 -1.15,-3.18l7.04,-15.44c0.77,-2.36 1.8,-2.23 3.59,-1.37c1.63,0.78 2.06,1.89 1.23,3.8l-7.04,15.44c-0.65,1.43 -0.89,1.67 -3.32,0.95c-0.13,-0.03 -0.24,-0.12 -0.35,-0.2z"
                  class="st4"/>
            <path id="svg_103"
                  d="m179.98,70.009989c0.24,-1.75 0.94,-2.21 2.28,-2.2l15.88,0.14c2.31,-0.24 2.59,0.69 2.53,2.54c-0.05,1.69 -0.83,2.48 -2.78,2.5l-15.88,-0.14c-1.47,-0.01 -1.77,-0.13 -2.08,-2.48c-0.01,-0.11 0.03,-0.24 0.05,-0.36z"
                  class="st4"/>
            <path id="svg_104"
                  d="m377.4,29.539989c0,2.17 -1.41,3.12 -10.79,3.12l-35.64,0c-9.38,0 -10.79,-0.95 -10.79,-3.12c0,-2.17 1.41,-3.12 10.79,-3.12l35.64,0c9.38,0 10.79,0.95 10.79,3.12z"
                  class="st4"/>
            <path id="svg_105"
                  d="m340.27,5.129989c1.78,1.24 2.1,2.45 -0.98,6.85l-11.68,16.72c-3.07,4.4 -4.31,4.52 -6.09,3.28c-1.78,-1.24 -2.1,-2.45 0.98,-6.85l11.68,-16.72c3.08,-4.41 4.32,-4.52 6.09,-3.28z"
                  class="st4"/>
            <path id="svg_106"
                  d="m323.27,44.359989c2.17,-0.01 3.12,0.68 3.15,5.34l0.11,17.7c0.03,4.66 -0.92,5.36 -3.09,5.37c-2.17,0.01 -3.12,-0.68 -3.15,-5.34l-0.11,-17.7c-0.03,-4.66 0.92,-5.36 3.09,-5.37z"
                  class="st4"/>
            <path id="svg_107"
                  d="m380.99,46.659989c0,2.17 -1.49,3.12 -11.42,3.12l-37.75,0c-9.93,0 -11.42,-0.95 -11.42,-3.12c0,-2.17 1.49,-3.12 11.42,-3.12l37.75,0c9.93,0 11.42,0.95 11.42,3.12z"
                  class="st4"/>
            <path id="svg_108"
                  d="m378.09,44.359989c2.17,-0.01 3.12,0.68 3.15,5.33l0.11,17.69c0.03,4.66 -0.92,5.36 -3.09,5.37c-2.17,0.01 -3.12,-0.68 -3.15,-5.33l-0.11,-17.69c-0.03,-4.65 0.92,-5.36 3.09,-5.37z"
                  class="st4"/>
            <path id="svg_109"
                  d="m380.99,69.909989c0,2.17 -1.49,3.12 -11.42,3.12l-37.75,0c-9.93,0 -11.42,-0.95 -11.42,-3.12s1.49,-3.12 11.42,-3.12l37.75,0c9.93,0 11.42,0.95 11.42,3.12z"
                  class="st4"/>
            <path id="svg_110"
                  d="m370.7,20.219989c1.84,-1.15 2.91,-1.23 4.69,1.61l6.76,10.8c1.78,2.84 1.24,3.77 -0.6,4.92c-1.84,1.15 -2.91,1.23 -4.69,-1.61l-6.76,-10.8c-1.78,-2.84 -1.24,-3.77 0.6,-4.92z"
                  class="st4"/>
            <path id="svg_111"
                  d="m370.93,16.739989c0,1.66 -1.26,3 -2.81,3c-1.55,0 -2.81,-1.34 -2.81,-3c0,-1.66 1.26,-3 2.81,-3c1.55,0 2.81,1.34 2.81,3z"/>
            <circle id="svg_112" r="2.71" cy="2.759989" cx="115.01" class="st0"/>
            <circle id="svg_113" r="3" cy="62.879989" cx="231.47" class="st1"/>
            <circle id="svg_114" r="3" cy="70.409989" cx="312.12" class="st1"/>
            <circle id="svg_115" r="3" cy="70.409989" cx="312.12" class="st2"/>
            <circle id="svg_116" r="2.87" cy="16.739989" cx="368.12" class="st3"/>
        </g>
    </g>
</svg>
